<svg width="62" height="62" viewBox="0 0 62 62" fill="none" xmlns="http://www.w3.org/2000/svg"><path d="M12.5615 40.3213C12.1863 35.8031 15.4023 31.7859 19.8925 31.164L22.8239 30.758L26.4361 30.6747C30.6029 30.5785 34.129 33.7491 34.4739 37.9022C35.2962 42.6468 31.7986 47.0373 26.9908 47.2953L24.2098 47.4446L20.0061 48.1133C15.9544 48.7578 12.3396 45.4816 12.5848 41.3869C12.603 41.0828 12.5995 40.7777 12.5742 40.474L12.5615 40.3213Z" fill="#1A1B1E"></path><path d="M17.8913 24.0116C17.6619 21.2491 19.6002 18.7818 22.338 18.3513C22.602 18.3098 22.8689 18.2883 23.1362 18.2871L23.3325 18.2861C25.9943 18.2735 28.2213 20.3131 28.4416 22.9653C28.8968 25.9748 26.6557 28.7554 23.6153 28.8925L23.0667 28.9937C20.3581 29.4935 17.8715 27.3697 17.9415 24.6163L17.8913 24.0116Z" fill="#1A1B1E"></path><path d="M30.8001 20.9906C30.5811 15.8148 34.5996 11.4469 39.7756 11.2345C44.9517 11.0222 49.3252 15.0459 49.5443 20.2216L49.6079 21.7249C49.862 27.7308 45.199 32.7994 39.1927 33.0458L31.3239 33.3686L28.0285 33.5038C26.5638 33.5638 25.9102 31.6862 27.0968 30.8267C29.593 29.0184 31.0154 26.0785 30.885 22.997L30.8637 22.4938L30.8001 20.9906Z" fill="#0079FD"></path><rect width="5.51718" height="3.10672" rx="1.55336" transform="matrix(-0.860616 -0.510412 -0.532871 0.845483 42.5215 19.0288)" fill="white"></rect><rect width="9.65507" height="3.10672" rx="1.55336" transform="matrix(0.860616 0.510412 0.532871 -0.845483 33.9102 22.3418)" fill="white"></rect></svg>