<svg width="62" height="62" viewBox="0 0 62 62" fill="none" xmlns="http://www.w3.org/2000/svg"><path fill-rule="evenodd" clip-rule="evenodd" d="M16.2827 16.2827C14.4668 18.0987 14.4668 21.0214 14.4668 26.8668V27.9001C14.4668 33.7455 14.4668 36.6683 16.2827 38.4842C18.0987 40.3001 21.0214 40.3001 26.8668 40.3001H27.8977C26.0564 38.7395 24.8943 36.4512 24.8943 33.9011C24.8943 29.1983 28.8466 25.3859 33.722 25.3859C36.3355 25.3859 38.6838 26.4815 40.3001 28.2224C40.3001 28.116 40.3001 28.0086 40.3001 27.9001V26.8668C40.3001 21.0214 40.3001 18.0987 38.4842 16.2827C36.6683 14.4668 33.7455 14.4668 27.9001 14.4668H26.8668C21.0214 14.4668 18.0987 14.4668 16.2827 16.2827Z" fill="#1A1B1E"></path><path fill-rule="evenodd" clip-rule="evenodd" d="M33.8681 23.0044C27.5541 23.0044 22.4355 27.9401 22.4355 34.0286C22.4355 40.1171 27.5541 45.0528 33.8681 45.0528C36.128 45.0528 38.2347 44.4206 40.0084 43.3294L45.6552 48.6368L45.8468 48.8021C46.5156 49.2979 47.4637 49.2415 48.0688 48.6337C48.7344 47.9651 48.733 46.8825 48.0657 46.2157L42.6318 41.1084C44.2976 39.1932 45.3006 36.7238 45.3006 34.0286C45.3006 27.9401 40.1821 23.0044 33.8681 23.0044ZM33.6853 25.9037C38.2789 25.9037 42.0027 29.5453 42.0027 34.0374C42.0027 38.5295 38.2789 42.1711 33.6853 42.1711C29.0917 42.1711 25.3679 38.5295 25.3679 34.0374C25.3679 29.5453 29.0917 25.9037 33.6853 25.9037Z" fill="#0079FD"></path><path fill-rule="evenodd" clip-rule="evenodd" d="M33.8677 23.7795C27.9549 23.7795 23.2102 28.3946 23.2102 34.0287C23.2102 39.6629 27.9549 44.278 33.8677 44.278C35.9815 44.278 37.9481 43.6868 39.602 42.6694L40.1069 42.3588L46.1735 48.0609L46.3277 48.1939C46.6906 48.4484 47.1953 48.4124 47.5192 48.087C47.8809 47.7237 47.8824 47.1364 47.5246 46.7711L41.5573 41.1626L42.0467 40.5999C43.5965 38.818 44.5252 36.527 44.5252 34.0287C44.5252 28.3946 39.7805 23.7795 33.8677 23.7795ZM21.6602 34.0287C21.6602 27.4859 27.1525 22.2295 33.8677 22.2295C40.5829 22.2295 46.0752 27.4859 46.0752 34.0287C46.0752 36.6555 45.1865 39.0807 43.6885 41.0385L48.6047 45.6592L48.6131 45.6676C49.5828 46.6366 49.5849 48.2091 48.6176 49.1806C47.7372 50.0649 46.3583 50.1464 45.3849 49.4248L45.3619 49.4078L45.1361 49.213L39.8983 44.2899C38.1178 45.2694 36.0587 45.828 33.8677 45.828C27.1525 45.828 21.6602 40.5716 21.6602 34.0287ZM24.5925 34.0375C24.5925 29.1012 28.6797 25.1288 33.6849 25.1288C38.6901 25.1288 42.7773 29.1012 42.7773 34.0375C42.7773 38.9739 38.6901 42.9462 33.6849 42.9462C28.6797 42.9462 24.5925 38.9739 24.5925 34.0375ZM33.6849 26.6788C29.503 26.6788 26.1425 29.9897 26.1425 34.0375C26.1425 38.0854 29.503 41.3962 33.6849 41.3962C37.8669 41.3962 41.2273 38.0854 41.2273 34.0375C41.2273 29.9897 37.8669 26.6788 33.6849 26.6788Z" fill="#0079FD"></path></svg>