<svg width="62" height="62" viewBox="0 0 62 62" fill="none" xmlns="http://www.w3.org/2000/svg"><path d="M13.3965 28.6628C13.3965 23.3654 13.3965 20.7167 15.0422 19.071C16.6879 17.4253 19.3366 17.4253 24.634 17.4253H33.6205C38.9179 17.4253 41.5666 17.4253 43.2123 19.071C44.858 20.7167 44.858 23.3654 44.858 28.6628V29.601C44.858 34.8984 44.858 37.5471 43.2123 39.1928C41.5666 40.8385 38.9179 40.8385 33.6205 40.8385H24.634C19.3366 40.8385 16.6879 40.8385 15.0422 39.1928C13.3965 37.5471 13.3965 34.8984 13.3965 29.601V28.6628Z" fill="#1A1B1E"></path><path d="M20.7286 32.4701C21.9602 27.8734 22.5761 25.575 24.3704 24.5071C24.4094 24.4839 24.4487 24.4611 24.4884 24.439C26.3104 23.419 28.6087 24.0349 33.2054 25.2666L41.3091 27.4379C45.9058 28.6696 48.2041 29.2854 49.272 31.0797C49.2953 31.1188 49.318 31.1581 49.3402 31.1978C50.3601 33.0197 49.7443 35.3181 48.5126 39.9148C47.2809 44.5115 46.6651 46.8098 44.8708 47.8777C44.8318 47.901 44.7924 47.9237 44.7528 47.9459C42.9308 48.9658 40.6325 48.35 36.0358 47.1183L27.9321 44.9469C23.3354 43.7152 21.037 43.0994 19.9691 41.3051C19.9459 41.2661 19.9232 41.2267 19.901 41.1871C18.881 39.3651 19.4969 37.0668 20.7286 32.4701Z" fill="#0079FD"></path><path fill-rule="evenodd" clip-rule="evenodd" d="M40.6402 46.8334C39.5378 46.6288 38.1901 46.2679 36.4359 45.7981L28.3424 43.6305C26.4232 43.1166 24.9905 42.7329 23.8928 42.3201C25.4426 39.3897 28.6726 37.5989 32.1367 38.0188L33.207 38.1485L35.3502 38.6922C38.9624 39.6085 41.2717 43.1672 40.6402 46.8334Z" fill="white"></path><path d="M31.2054 32.3264C31.5633 30.3073 33.4158 28.921 35.4523 29.1483C35.6429 29.1696 35.8319 29.2049 36.0176 29.254L36.2588 29.3177C38.1067 29.8056 39.2785 31.6383 38.9452 33.5189C38.7114 35.7101 36.637 37.2002 34.4867 36.7216L34.4051 36.7034L33.8882 36.6592C31.9185 36.4907 30.5889 34.5446 31.1483 32.6487L31.2054 32.3264Z" fill="white"></path><ellipse cx="46.2416" cy="33.2053" rx="1.43821" ry="1.43821" transform="rotate(15 46.2416 33.2053)" fill="white"></ellipse></svg>